<?xml version="1.0" standalone="no"?>
<!DOCTYPE svg PUBLIC "-//W3C//DTD SVG 20010904//EN"
 "http://www.w3.org/TR/2001/REC-SVG-20010904/DTD/svg10.dtd">
<svg version="1.0" xmlns="http://www.w3.org/2000/svg"
 width="30" height="30" viewBox="0 0 752.000000 752.000000"
 preserveAspectRatio="xMidYMid meet">

<g transform="translate(0.000000,752.000000) scale(0.100000,-0.100000)"
fill="#212121" stroke="none">
<path d="M1712 6109 c245 -599 389 -1173 455 -1809 21 -208 25 -828 5 -1025
-42 -425 -109 -789 -216 -1163 -56 -194 -139 -439 -200 -592 -25 -62 -44 -115
-42 -118 2 -2 269 149 593 336 323 186 887 512 1253 722 366 211 724 417 796
459 72 42 428 247 792 456 364 209 661 382 661 385 0 3 -633 370 -1407 815
-773 446 -1690 974 -2037 1174 -346 200 -636 366 -644 369 -10 4 -13 1 -9 -9z
m1793 -1079 c864 -497 1711 -984 1883 -1083 171 -99 312 -182 312 -186 0 -4
-165 -75 -367 -158 -587 -242 -1357 -561 -2048 -847 -352 -145 -641 -263 -643
-262 -1 2 21 41 49 87 237 381 352 811 320 1196 -49 588 -326 1127 -1038 2021
-84 105 -153 194 -153 197 0 2 26 -11 58 -29 31 -18 764 -440 1627 -936z"/>
</g>
</svg>
