<?xml version="1.0" standalone="no"?>
<!DOCTYPE svg PUBLIC "-//W3C//DTD SVG 20010904//EN"
 "http://www.w3.org/TR/2001/REC-SVG-20010904/DTD/svg10.dtd">
<svg version="1.0" xmlns="http://www.w3.org/2000/svg"
 width="30" height="30" viewBox="0 0 752.000000 752.000000"
 preserveAspectRatio="xMidYMid meet">

<g transform="translate(0.000000,752.000000) scale(0.100000,-0.100000)"
fill="#212121" stroke="none">
<path d="M1987 5532 c-185 -185 -337 -342 -337 -347 0 -5 318 -328 707 -717
l708 -708 -709 -709 -710 -710 338 -345 c186 -190 344 -346 350 -346 6 0 329
318 718 707 l708 708 708 -708 c389 -389 712 -707 717 -707 13 0 685 672 685
685 0 5 -318 328 -707 717 l-708 708 708 708 c389 389 707 712 707 717 0 13
-672 685 -685 685 -5 0 -328 -318 -717 -707 l-708 -708 -708 708 c-389 389
-712 707 -717 707 -6 0 -162 -152 -348 -338z"/>
</g>
</svg>
